<svg xmlns="http://www.w3.org/2000/svg" version="1.1" xmlns:xlink="http://www.w3.org/1999/xlink" xmlns:svgjs="http://svgjs.com/svgjs" width="1920" height="1080" preserveAspectRatio="none" viewBox="0 0 1920 1080"><g mask="url(&quot;#SvgjsMask1041&quot;)" fill="none"><rect width="1920" height="1080" x="0" y="0" fill="rgba(69, 123, 157, 1)"></rect><path d="M10 1080L1090 0L1312 0L232 1080z" fill="url(#SvgjsLinearGradient1042)"></path><path d="M745.6 1080L1825.6 0L2695.6 0L1615.6 1080z" fill="url(#SvgjsLinearGradient1042)"></path><path d="M1879 1080L799 0L389.5 0L1469.5 1080z" fill="url(#SvgjsLinearGradient1043)"></path><path d="M1211.4 1080L131.4000000000001 0L-555.5999999999999 0L524.4000000000001 1080z" fill="url(#SvgjsLinearGradient1043)"></path><path d="M872.3389537176411 1080L1920 32.33895371764106L1920 1080z" fill="url(#SvgjsLinearGradient1042)"></path><path d="M0 1080L1047.661046282359 1080L 0 32.33895371764106z" fill="url(#SvgjsLinearGradient1043)"></path></g><defs><mask id="SvgjsMask1041"><rect width="1920" height="1080" fill="#ffffff"></rect></mask><linearGradient x1="0%" y1="100%" x2="100%" y2="0%" id="SvgjsLinearGradient1042"><stop stop-color="rgba(15, 70, 185, 0.2)" offset="0"></stop><stop stop-opacity="0" stop-color="rgba(15, 70, 185, 0.2)" offset="0.66"></stop></linearGradient><linearGradient x1="100%" y1="100%" x2="0%" y2="0%" id="SvgjsLinearGradient1043"><stop stop-color="rgba(15, 70, 185, 0.2)" offset="0"></stop><stop stop-opacity="0" stop-color="rgba(15, 70, 185, 0.2)" offset="0.66"></stop></linearGradient></defs></svg>